<mxfile host="Electron" agent="Mozilla/5.0 (Macintosh; Intel Mac OS X 10_15_7) AppleWebKit/537.36 (KHTML, like Gecko) draw.io/27.0.9 Chrome/134.0.6998.205 Electron/35.4.0 Safari/537.36" version="27.0.9">
  <diagram name="Page-1" id="O5i2RmPopD20-2XO5nsw">
    <mxGraphModel dx="2038" dy="883" grid="1" gridSize="10" guides="1" tooltips="1" connect="1" arrows="1" fold="1" page="1" pageScale="1" pageWidth="850" pageHeight="1100" math="0" shadow="0">
      <root>
        <mxCell id="0" />
        <mxCell id="1" parent="0" />
        <mxCell id="USx4_DVaHoe2_fVqXpNm-13" value="VPC: 10.0.0.0/16" style="sketch=0;outlineConnect=0;gradientColor=none;html=1;whiteSpace=wrap;fontSize=12;fontStyle=0;shape=mxgraph.aws4.group;grIcon=mxgraph.aws4.group_vpc;strokeColor=#B6BABF;fillColor=none;verticalAlign=top;align=left;spacingLeft=30;fontColor=#B6BABF;dashed=0;" vertex="1" parent="1">
          <mxGeometry x="160" y="990" width="1080" height="700" as="geometry" />
        </mxCell>
        <mxCell id="USx4_DVaHoe2_fVqXpNm-14" value="Availability zone: 1a" style="sketch=0;outlineConnect=0;gradientColor=none;html=1;whiteSpace=wrap;fontSize=12;fontStyle=0;shape=mxgraph.aws4.group;grIcon=mxgraph.aws4.group_availability_zone;strokeColor=#545B64;fillColor=none;verticalAlign=top;align=left;spacingLeft=30;fontColor=#545B64;dashed=1;" vertex="1" parent="1">
          <mxGeometry x="190" y="1040" width="490" height="620" as="geometry" />
        </mxCell>
        <mxCell id="USx4_DVaHoe2_fVqXpNm-17" value="Subnet: Public 10.0.0.0/24" style="sketch=0;outlineConnect=0;gradientColor=none;html=1;whiteSpace=wrap;fontSize=12;fontStyle=0;shape=mxgraph.aws4.group;grIcon=mxgraph.aws4.group_subnet;strokeColor=#879196;fillColor=none;verticalAlign=top;align=left;spacingLeft=30;fontColor=#879196;dashed=0;" vertex="1" parent="1">
          <mxGeometry x="220" y="1070" width="420" height="170" as="geometry" />
        </mxCell>
        <mxCell id="USx4_DVaHoe2_fVqXpNm-1" value="Organization" style="outlineConnect=0;gradientColor=none;html=1;whiteSpace=wrap;fontSize=12;fontStyle=0;strokeColor=#879196;fillColor=none;verticalAlign=top;align=center;fontColor=#879196;dashed=1;spacingTop=3;" vertex="1" parent="1">
          <mxGeometry x="160" y="150" width="590" height="560" as="geometry" />
        </mxCell>
        <mxCell id="USx4_DVaHoe2_fVqXpNm-2" value="AWS Root Account" style="sketch=0;outlineConnect=0;gradientColor=none;html=1;whiteSpace=wrap;fontSize=12;fontStyle=0;shape=mxgraph.aws4.group;grIcon=mxgraph.aws4.group_aws_cloud;strokeColor=#AAB7B8;fillColor=none;verticalAlign=top;align=left;spacingLeft=30;fontColor=#AAB7B8;dashed=0;" vertex="1" parent="1">
          <mxGeometry x="344" y="200" width="210" height="220" as="geometry" />
        </mxCell>
        <mxCell id="USx4_DVaHoe2_fVqXpNm-3" value="Consolidated Billing&lt;br&gt;&lt;br&gt;Accounts Management&lt;br&gt;&lt;br&gt;Trusted access for AWS services" style="shape=note;whiteSpace=wrap;html=1;backgroundOutline=1;fontColor=#000000;darkOpacity=0.05;fillColor=#FFF9B2;strokeColor=none;fillStyle=solid;direction=west;gradientDirection=north;gradientColor=#FFF2A1;shadow=1;size=20;pointerEvents=1;" vertex="1" parent="1">
          <mxGeometry x="400" y="220" width="110" height="150" as="geometry" />
        </mxCell>
        <mxCell id="USx4_DVaHoe2_fVqXpNm-4" value="AWS Account: Development" style="points=[[0,0],[0.25,0],[0.5,0],[0.75,0],[1,0],[1,0.25],[1,0.5],[1,0.75],[1,1],[0.75,1],[0.5,1],[0.25,1],[0,1],[0,0.75],[0,0.5],[0,0.25]];outlineConnect=0;gradientColor=none;html=1;whiteSpace=wrap;fontSize=12;fontStyle=0;container=1;pointerEvents=0;collapsible=0;recursiveResize=0;shape=mxgraph.aws4.group;grIcon=mxgraph.aws4.group_aws_cloud_alt;strokeColor=#232F3E;fillColor=none;verticalAlign=top;align=left;spacingLeft=30;fontColor=#232F3E;dashed=0;" vertex="1" parent="1">
          <mxGeometry x="210" y="510" width="170" height="160" as="geometry" />
        </mxCell>
        <mxCell id="USx4_DVaHoe2_fVqXpNm-6" value="Amazon Cloudfront&amp;nbsp;&lt;span style=&quot;color: rgb(0, 0, 0); font-size: 12px; font-weight: 400; text-wrap-mode: nowrap;&quot;&gt;(global)&lt;/span&gt;" style="sketch=0;outlineConnect=0;fontColor=#232F3E;gradientColor=none;strokeColor=#ffffff;fillColor=#232F3E;dashed=0;verticalLabelPosition=middle;verticalAlign=bottom;align=center;html=1;whiteSpace=wrap;fontSize=10;fontStyle=1;spacing=3;shape=mxgraph.aws4.productIcon;prIcon=mxgraph.aws4.cloudfront;" vertex="1" parent="1">
          <mxGeometry x="326" y="856" width="80" height="110" as="geometry" />
        </mxCell>
        <mxCell id="USx4_DVaHoe2_fVqXpNm-8" value="Amazon S3 (SPA)&amp;nbsp;&lt;div style=&quot;padding: 0px; margin: 0px;&quot;&gt;&lt;br style=&quot;padding: 0px; margin: 0px; color: rgb(0, 0, 0); font-size: 12px; font-weight: 400; text-align: left;&quot;&gt;&lt;/div&gt;" style="sketch=0;outlineConnect=0;fontColor=#232F3E;gradientColor=none;strokeColor=#ffffff;fillColor=#232F3E;dashed=0;verticalLabelPosition=bottom;verticalAlign=top;align=center;html=1;whiteSpace=wrap;fontSize=10;fontStyle=1;spacing=3;shape=mxgraph.aws4.productIcon;prIcon=mxgraph.aws4.s3;labelPosition=center;" vertex="1" parent="1">
          <mxGeometry x="508" y="850" width="80" height="100" as="geometry" />
        </mxCell>
        <mxCell id="USx4_DVaHoe2_fVqXpNm-9" value="" style="sketch=0;outlineConnect=0;fontColor=#232F3E;gradientColor=none;fillColor=#232F3D;strokeColor=none;dashed=0;verticalLabelPosition=bottom;verticalAlign=top;align=center;html=1;fontSize=12;fontStyle=0;aspect=fixed;pointerEvents=1;shape=mxgraph.aws4.user;" vertex="1" parent="1">
          <mxGeometry x="170" y="861" width="78" height="78" as="geometry" />
        </mxCell>
        <mxCell id="USx4_DVaHoe2_fVqXpNm-16" value="AWS Account: Production" style="points=[[0,0],[0.25,0],[0.5,0],[0.75,0],[1,0],[1,0.25],[1,0.5],[1,0.75],[1,1],[0.75,1],[0.5,1],[0.25,1],[0,1],[0,0.75],[0,0.5],[0,0.25]];outlineConnect=0;gradientColor=none;html=1;whiteSpace=wrap;fontSize=12;fontStyle=0;container=1;pointerEvents=0;collapsible=0;recursiveResize=0;shape=mxgraph.aws4.group;grIcon=mxgraph.aws4.group_aws_cloud_alt;strokeColor=#232F3E;fillColor=none;verticalAlign=top;align=left;spacingLeft=30;fontColor=#232F3E;dashed=0;" vertex="1" parent="1">
          <mxGeometry x="520" y="510" width="170" height="160" as="geometry" />
        </mxCell>
        <mxCell id="USx4_DVaHoe2_fVqXpNm-18" value="ALB (Ingress)" style="sketch=0;outlineConnect=0;fontColor=#232F3E;gradientColor=none;fillColor=#8C4FFF;strokeColor=none;dashed=0;verticalLabelPosition=bottom;verticalAlign=top;align=center;html=1;fontSize=12;fontStyle=0;aspect=fixed;pointerEvents=1;shape=mxgraph.aws4.application_load_balancer;" vertex="1" parent="1">
          <mxGeometry x="280" y="1110" width="78" height="78" as="geometry" />
        </mxCell>
        <mxCell id="USx4_DVaHoe2_fVqXpNm-22" value="NAT GW" style="sketch=0;outlineConnect=0;fontColor=#232F3E;gradientColor=none;fillColor=#8C4FFF;strokeColor=none;dashed=0;verticalLabelPosition=bottom;verticalAlign=top;align=center;html=1;fontSize=12;fontStyle=0;aspect=fixed;pointerEvents=1;shape=mxgraph.aws4.nat_gateway;" vertex="1" parent="1">
          <mxGeometry x="442" y="1110" width="78" height="78" as="geometry" />
        </mxCell>
        <mxCell id="USx4_DVaHoe2_fVqXpNm-23" value="Subnet: Private 10.0.10.0/24&lt;span style=&quot;white-space:pre&quot;&gt;&#x9;&lt;/span&gt;" style="sketch=0;outlineConnect=0;gradientColor=none;html=1;whiteSpace=wrap;fontSize=12;fontStyle=0;shape=mxgraph.aws4.group;grIcon=mxgraph.aws4.group_subnet;strokeColor=#879196;fillColor=none;verticalAlign=top;align=left;spacingLeft=30;fontColor=#879196;dashed=0;" vertex="1" parent="1">
          <mxGeometry x="220" y="1260" width="420" height="170" as="geometry" />
        </mxCell>
        <mxCell id="USx4_DVaHoe2_fVqXpNm-24" value="EKS" style="sketch=0;points=[[0,0,0],[0.25,0,0],[0.5,0,0],[0.75,0,0],[1,0,0],[0,1,0],[0.25,1,0],[0.5,1,0],[0.75,1,0],[1,1,0],[0,0.25,0],[0,0.5,0],[0,0.75,0],[1,0.25,0],[1,0.5,0],[1,0.75,0]];outlineConnect=0;fontColor=#232F3E;fillColor=#ED7100;strokeColor=#ffffff;dashed=0;verticalLabelPosition=bottom;verticalAlign=top;align=center;html=1;fontSize=12;fontStyle=0;aspect=fixed;shape=mxgraph.aws4.resourceIcon;resIcon=mxgraph.aws4.eks;" vertex="1" parent="1">
          <mxGeometry x="280" y="1306" width="78" height="78" as="geometry" />
        </mxCell>
        <mxCell id="USx4_DVaHoe2_fVqXpNm-25" value="Subnet: Isolated 10.0.20.0/24&lt;span style=&quot;white-space:pre&quot;&gt;&#x9;&lt;/span&gt;" style="sketch=0;outlineConnect=0;gradientColor=none;html=1;whiteSpace=wrap;fontSize=12;fontStyle=0;shape=mxgraph.aws4.group;grIcon=mxgraph.aws4.group_subnet;strokeColor=#879196;fillColor=none;verticalAlign=top;align=left;spacingLeft=30;fontColor=#879196;dashed=0;" vertex="1" parent="1">
          <mxGeometry x="220" y="1450" width="420" height="170" as="geometry" />
        </mxCell>
        <mxCell id="USx4_DVaHoe2_fVqXpNm-26" value="RDS PostgreSQL" style="sketch=0;points=[[0,0,0],[0.25,0,0],[0.5,0,0],[0.75,0,0],[1,0,0],[0,1,0],[0.25,1,0],[0.5,1,0],[0.75,1,0],[1,1,0],[0,0.25,0],[0,0.5,0],[0,0.75,0],[1,0.25,0],[1,0.5,0],[1,0.75,0]];outlineConnect=0;fontColor=#232F3E;fillColor=#C925D1;strokeColor=#ffffff;dashed=0;verticalLabelPosition=bottom;verticalAlign=top;align=center;html=1;fontSize=12;fontStyle=0;aspect=fixed;shape=mxgraph.aws4.resourceIcon;resIcon=mxgraph.aws4.aurora;" vertex="1" parent="1">
          <mxGeometry x="280" y="1490" width="78" height="78" as="geometry" />
        </mxCell>
        <mxCell id="USx4_DVaHoe2_fVqXpNm-28" value="Availability zone: 1b" style="sketch=0;outlineConnect=0;gradientColor=none;html=1;whiteSpace=wrap;fontSize=12;fontStyle=0;shape=mxgraph.aws4.group;grIcon=mxgraph.aws4.group_availability_zone;strokeColor=#545B64;fillColor=none;verticalAlign=top;align=left;spacingLeft=30;fontColor=#545B64;dashed=1;" vertex="1" parent="1">
          <mxGeometry x="720" y="1040" width="490" height="620" as="geometry" />
        </mxCell>
        <mxCell id="USx4_DVaHoe2_fVqXpNm-29" value="Subnet: Public 10.0.1.0/24" style="sketch=0;outlineConnect=0;gradientColor=none;html=1;whiteSpace=wrap;fontSize=12;fontStyle=0;shape=mxgraph.aws4.group;grIcon=mxgraph.aws4.group_subnet;strokeColor=#879196;fillColor=none;verticalAlign=top;align=left;spacingLeft=30;fontColor=#879196;dashed=0;" vertex="1" parent="1">
          <mxGeometry x="750" y="1070" width="420" height="170" as="geometry" />
        </mxCell>
        <mxCell id="USx4_DVaHoe2_fVqXpNm-30" value="ALB (Ingress)" style="sketch=0;outlineConnect=0;fontColor=#232F3E;gradientColor=none;fillColor=#8C4FFF;strokeColor=none;dashed=0;verticalLabelPosition=bottom;verticalAlign=top;align=center;html=1;fontSize=12;fontStyle=0;aspect=fixed;pointerEvents=1;shape=mxgraph.aws4.application_load_balancer;" vertex="1" parent="1">
          <mxGeometry x="810" y="1110" width="78" height="78" as="geometry" />
        </mxCell>
        <mxCell id="USx4_DVaHoe2_fVqXpNm-31" value="NAT GW" style="sketch=0;outlineConnect=0;fontColor=#232F3E;gradientColor=none;fillColor=#8C4FFF;strokeColor=none;dashed=0;verticalLabelPosition=bottom;verticalAlign=top;align=center;html=1;fontSize=12;fontStyle=0;aspect=fixed;pointerEvents=1;shape=mxgraph.aws4.nat_gateway;" vertex="1" parent="1">
          <mxGeometry x="972" y="1110" width="78" height="78" as="geometry" />
        </mxCell>
        <mxCell id="USx4_DVaHoe2_fVqXpNm-32" value="Subnet: Private 10.0.11.0/24&lt;span style=&quot;white-space:pre&quot;&gt;&#x9;&lt;/span&gt;" style="sketch=0;outlineConnect=0;gradientColor=none;html=1;whiteSpace=wrap;fontSize=12;fontStyle=0;shape=mxgraph.aws4.group;grIcon=mxgraph.aws4.group_subnet;strokeColor=#879196;fillColor=none;verticalAlign=top;align=left;spacingLeft=30;fontColor=#879196;dashed=0;" vertex="1" parent="1">
          <mxGeometry x="750" y="1260" width="420" height="170" as="geometry" />
        </mxCell>
        <mxCell id="USx4_DVaHoe2_fVqXpNm-33" value="EKS" style="sketch=0;points=[[0,0,0],[0.25,0,0],[0.5,0,0],[0.75,0,0],[1,0,0],[0,1,0],[0.25,1,0],[0.5,1,0],[0.75,1,0],[1,1,0],[0,0.25,0],[0,0.5,0],[0,0.75,0],[1,0.25,0],[1,0.5,0],[1,0.75,0]];outlineConnect=0;fontColor=#232F3E;fillColor=#ED7100;strokeColor=#ffffff;dashed=0;verticalLabelPosition=bottom;verticalAlign=top;align=center;html=1;fontSize=12;fontStyle=0;aspect=fixed;shape=mxgraph.aws4.resourceIcon;resIcon=mxgraph.aws4.eks;" vertex="1" parent="1">
          <mxGeometry x="810" y="1306" width="78" height="78" as="geometry" />
        </mxCell>
        <mxCell id="USx4_DVaHoe2_fVqXpNm-34" value="Subnet: Isolated 10.0.21.0/24&lt;span style=&quot;white-space:pre&quot;&gt;&#x9;&lt;/span&gt;" style="sketch=0;outlineConnect=0;gradientColor=none;html=1;whiteSpace=wrap;fontSize=12;fontStyle=0;shape=mxgraph.aws4.group;grIcon=mxgraph.aws4.group_subnet;strokeColor=#879196;fillColor=none;verticalAlign=top;align=left;spacingLeft=30;fontColor=#879196;dashed=0;" vertex="1" parent="1">
          <mxGeometry x="750" y="1450" width="420" height="170" as="geometry" />
        </mxCell>
        <mxCell id="USx4_DVaHoe2_fVqXpNm-35" value="RDS PostgreSQL" style="sketch=0;points=[[0,0,0],[0.25,0,0],[0.5,0,0],[0.75,0,0],[1,0,0],[0,1,0],[0.25,1,0],[0.5,1,0],[0.75,1,0],[1,1,0],[0,0.25,0],[0,0.5,0],[0,0.75,0],[1,0.25,0],[1,0.5,0],[1,0.75,0]];outlineConnect=0;fontColor=#232F3E;fillColor=#C925D1;strokeColor=#ffffff;dashed=0;verticalLabelPosition=bottom;verticalAlign=top;align=center;html=1;fontSize=12;fontStyle=0;aspect=fixed;shape=mxgraph.aws4.resourceIcon;resIcon=mxgraph.aws4.aurora;" vertex="1" parent="1">
          <mxGeometry x="810" y="1490" width="78" height="78" as="geometry" />
        </mxCell>
        <mxCell id="USx4_DVaHoe2_fVqXpNm-36" value="&lt;font style=&quot;font-size: 25px;&quot;&gt;1. Cloud Environment Structure:&lt;/font&gt;" style="text;align=left;verticalAlign=middle;resizable=0;points=[];autosize=1;strokeColor=none;fillColor=none;fontSize=20;html=1;fontStyle=1" vertex="1" parent="1">
          <mxGeometry x="160" y="90" width="380" height="40" as="geometry" />
        </mxCell>
        <mxCell id="USx4_DVaHoe2_fVqXpNm-37" value="&lt;span style=&quot;font-family: Helvetica; font-size: 25px; font-style: normal; font-variant-ligatures: normal; font-variant-caps: normal; font-weight: 700; letter-spacing: normal; orphans: 2; text-align: left; text-indent: 0px; text-transform: none; widows: 2; word-spacing: 0px; -webkit-text-stroke-width: 0px; white-space: nowrap; background-color: rgb(236, 236, 236); text-decoration-thickness: initial; text-decoration-style: initial; text-decoration-color: initial; float: none; display: inline !important;&quot;&gt;2. Network Design:&lt;/span&gt;" style="text;whiteSpace=wrap;html=1;fontColor=default;" vertex="1" parent="1">
          <mxGeometry x="160" y="790" width="420" height="50" as="geometry" />
        </mxCell>
        <mxCell id="USx4_DVaHoe2_fVqXpNm-38" value="&lt;span style=&quot;color: rgb(0, 0, 0); font-family: Helvetica; font-size: 25px; font-style: normal; font-variant-ligatures: normal; font-variant-caps: normal; font-weight: 700; letter-spacing: normal; orphans: 2; text-align: left; text-indent: 0px; text-transform: none; widows: 2; word-spacing: 0px; -webkit-text-stroke-width: 0px; white-space: nowrap; background-color: rgb(236, 236, 236); text-decoration-thickness: initial; text-decoration-style: initial; text-decoration-color: initial; display: inline !important; float: none;&quot;&gt;3. Compute Platform:&lt;/span&gt;" style="text;whiteSpace=wrap;html=1;" vertex="1" parent="1">
          <mxGeometry x="150" y="2120" width="420" height="50" as="geometry" />
        </mxCell>
        <mxCell id="USx4_DVaHoe2_fVqXpNm-39" value="&lt;font style=&quot;font-size: 20px;&quot;&gt;Network Security:&lt;/font&gt;" style="text;html=1;align=left;verticalAlign=middle;resizable=0;points=[];autosize=1;strokeColor=none;fillColor=none;" vertex="1" parent="1">
          <mxGeometry x="170" y="1750" width="180" height="40" as="geometry" />
        </mxCell>
        <mxCell id="USx4_DVaHoe2_fVqXpNm-48" value="" style="edgeStyle=orthogonalEdgeStyle;rounded=0;orthogonalLoop=1;jettySize=auto;html=1;" edge="1" parent="1" source="USx4_DVaHoe2_fVqXpNm-40" target="USx4_DVaHoe2_fVqXpNm-44">
          <mxGeometry relative="1" as="geometry" />
        </mxCell>
        <mxCell id="USx4_DVaHoe2_fVqXpNm-40" value="Git" style="sketch=0;outlineConnect=0;fontColor=#232F3E;gradientColor=none;fillColor=#232F3D;strokeColor=none;dashed=0;verticalLabelPosition=bottom;verticalAlign=top;align=center;html=1;fontSize=12;fontStyle=0;aspect=fixed;pointerEvents=1;shape=mxgraph.aws4.git_repository;" vertex="1" parent="1">
          <mxGeometry x="179" y="2240" width="60" height="78" as="geometry" />
        </mxCell>
        <mxCell id="USx4_DVaHoe2_fVqXpNm-49" value="" style="edgeStyle=orthogonalEdgeStyle;rounded=0;orthogonalLoop=1;jettySize=auto;html=1;" edge="1" parent="1" source="USx4_DVaHoe2_fVqXpNm-44" target="USx4_DVaHoe2_fVqXpNm-46">
          <mxGeometry relative="1" as="geometry" />
        </mxCell>
        <mxCell id="USx4_DVaHoe2_fVqXpNm-44" value="Build Service(GitHub Actions, GiLab CI, Jenkins, CLoudBuild)" style="outlineConnect=0;dashed=0;verticalLabelPosition=bottom;verticalAlign=top;align=center;html=1;shape=mxgraph.aws3.codebuild;fillColor=#759C3E;gradientColor=none;whiteSpace=wrap;" vertex="1" parent="1">
          <mxGeometry x="303.5" y="2239" width="66.5" height="80" as="geometry" />
        </mxCell>
        <mxCell id="USx4_DVaHoe2_fVqXpNm-51" value="" style="edgeStyle=orthogonalEdgeStyle;rounded=0;orthogonalLoop=1;jettySize=auto;html=1;" edge="1" parent="1" source="USx4_DVaHoe2_fVqXpNm-45" target="USx4_DVaHoe2_fVqXpNm-47">
          <mxGeometry relative="1" as="geometry" />
        </mxCell>
        <mxCell id="USx4_DVaHoe2_fVqXpNm-45" value="" style="shape=image;verticalLabelPosition=bottom;labelBackgroundColor=default;verticalAlign=top;aspect=fixed;imageAspect=0;editableCssRules=.*;image=data:image/svg+xml,PHN2ZyB4bWxucz0iaHR0cDovL3d3dy53My5vcmcvMjAwMC9zdmciIHZpZXdCb3g9IjIuNTQ5MDAwMDI0Nzk1NTMyMiAxLjk5OTczOTE3MDA3NDQ2MyAyNi45MDI5OTYwNjMyMzI0MjIgMjcuOTk4NDk1MTAxOTI4NzEiIHdpZHRoPSIyNi45MDI5OTYwNjMyMzI0MjIiIGhlaWdodD0iMjcuOTk4NDk1MTAxOTI4NzEiPjxnIGZpbGw9IiMyNzdhOWYiPjxwYXRoIGQ9Im0xNS44MTMgMi4wNzNhLjQyMS40MjEgMCAwIDEgLjQ1MS0uMDE1IDEuMjA2IDEuMjA2IDAgMCAxIC40MzIuNTUzIDQuMzgxIDQuMzgxIDAgMCAxIC4zMjUgMS4zNDkgNi4yNjcgNi4yNjcgMCAwIDEgLS4xNjkgMi4yIDEwLjAyNyAxMC4wMjcgMCAwIDEgNC41NTMgMS42IDUuOSA1LjkgMCAwIDEgLjk0NS0xLjcgNC41ODQgNC41ODQgMCAwIDEgMS4yODMtMS4xNzcuOTM1LjkzNSAwIDAgMSAuNzQzLS4xNC41NzUuNTc1IDAgMCAxIC4yODkuNTczIDMuMjI4IDMuMjI4IDAgMCAxIC0uMzY4IDEuMyA2LjE0OSA2LjE0OSAwIDAgMSAtMS42NjMgMi4xIDEwLjEzNiAxMC4xMzYgMCAwIDEgMS44MjUgMi4yMDhsLTEuMzY5LjgzMmE4LjQyMSA4LjQyMSAwIDAgMCAtMTQuMjY5LS4ybC0xLjM0NS0uODY5YTEwLjE1NiAxMC4xNTYgMCAwIDEgMS44MzItMi4xMDkgNi4zMzMgNi4zMzMgMCAwIDEgLTEuNDMyLTEuODQ3IDMuNDg2IDMuNDg2IDAgMCAxIC0uNDI3LTEuMzguNjM5LjYzOSAwIDAgMSAuMjMyLS41ODcuNzMxLjczMSAwIDAgMSAuNjUuMDM4IDMuNjg4IDMuNjg4IDAgMCAxIDEuMTIzLjg4NSA2LjMzIDYuMzMgMCAwIDEgMS4yIDEuOSAxMC4wMzUgMTAuMDM1IDAgMCAxIDQuNTkxLTEuNDYgNi4zMTggNi4zMTggMCAwIDEgLS4xNjEtMi4xNjEgNC40NTkgNC40NTkgMCAwIDEgLjMxMy0xLjMyOSAxLjI4NyAxLjI4NyAwIDAgMSAuNDE2LS41NjR6Ii8+PHBhdGggZD0ibTIuNTQ5IDEyLjZoMS45MjhxMCAxLjM1NyAwIDIuNzE0aDIuMTc1cTAtMS4zNTYgMC0yLjcxM2gxLjkyOXEwIDMuNjQ0IDAgNy4yODhoLTEuOTI5cTAtMS40NDcgMC0yLjg5MmgtMi4xNzVxMCAxLjQ0NyAwIDIuODkzaC0xLjkyOHoiLz48cGF0aCBkPSJtMTAuMTUzIDEyLjZoNC43MDl2MS42MTRoLTIuNzh2MS4xNDRoMi4zNzdxMCAuODA3IDAgMS42MTRoLTIuMzc3djEuM2gyLjg5MnEwIC44MDcgMCAxLjYxNGgtNC44MjF6Ii8+PHBhdGggZD0ibTE2LjQxNiAxMi42aDEuOTI4djUuNjczaDIuNzU2cTAgLjgwNyAwIDEuNjE0aC00LjY4NHoiLz48cGF0aCBkPSJtMjIuMzY2IDEyLjZoMi4wNjNxLjQ4MiAxLjMwNy45NjMgMi42MTVjLjIxMi41NDQuMzQ5IDEuMTExLjUyNiAxLjY2NmEuMzkyLjM5MiAwIDAgMCAuMDc4LS4xNmMuMTEyLS4zOTEuMjI4LS43ODIuMzUxLTEuMTcxcS41MTktMS40NzUgMS4wNDEtMi45NDloMi4wNjR2Ny4yODhoLTEuNzUyYTMzLjA1NCAzMy4wNTQgMCAwIDEgLjA4LTMuMzU2Yy4wNDQtLjQ3NS4xMjItLjk0Ny4xNjItMS40MjNhLjYxNy42MTcgMCAwIDAgLS4xMTEuMjI3Yy0uNDQ1IDEuMzMyLS45MzggMi42NDgtMS40MzYgMy45NjEtLjM0Mi0uMDA3LS42ODQgMC0xLjAyNiAwcS0uNDQyLTEuMTg3LS44ODMtMi4zNzRjLS4xNzItLjUtLjMzOC0xLjAxLS41MDYtMS41MTVhLjc0Ni43NDYgMCAwIDAgLS4xMzEtLjI5MiAyNS45NyAyNS45NyAwIDAgMSAuMjQyIDIuNzYxcTAgMS4wMDcgMCAyLjAxNGgtMS43MjV6Ii8+PHBhdGggZD0ibTcuNjY3IDIxLjhxLjY1Ni0uNDU4IDEuMzE0LS45MTVhOC40MjIgOC40MjIgMCAwIDAgMTMuODMzLS4wMTJsMS4zMTYuOTEyYTEwLjI2MSAxMC4yNjEgMCAwIDEgLTEuMzc5IDEuNiA2LjI3MiA2LjI3MiAwIDAgMSAxLjQ4NiAxLjg5MiAzLjQ5MSAzLjQ5MSAwIDAgMSAuNDI3IDEuMzc3LjYyLjYyIDAgMCAxIC0uMjYuNi44Ny44NyAwIDAgMSAtLjc0My0uMTEyIDQuNDEyIDQuNDEyIDAgMCAxIC0xLjI1Mi0xLjExNyA2LjI0OCA2LjI0OCAwIDAgMSAtLjk0OS0xLjYxNiA5Ljk2NyA5Ljk2NyAwIDAgMSAtNC41NiAxLjYzMiA2LjA4NiA2LjA4NiAwIDAgMSAuMTQ0IDEuNSA1LjAxNiA1LjAxNiAwIDAgMSAtLjMwOCAxLjc0OCAxLjM4IDEuMzggMCAwIDEgLS40NDYuNjM1LjQzMS40MzEgMCAwIDEgLS41MDctLjAxNyAxLjU3MyAxLjU3MyAwIDAgMSAtLjQ2Ny0uNzM2IDUuNzY0IDUuNzY0IDAgMCAxIC0uMjUxLTIuMjEyIDUuNjU5IDUuNjU5IDAgMCAxIC4xMjQtLjg5MiAxMC4wMjQgMTAuMDI0IDAgMCAxIC00LjYwNi0xLjQ5NCA2LjQ0IDYuNDQgMCAwIDEgLTEuMzQ4IDEuOTY0IDIuOTQyIDIuOTQyIDAgMCAxIC0xLjA1Ny43MTYuNTMxLjUzMSAwIDAgMSAtLjYxNC0uMTI0IDEuMTM5IDEuMTM5IDAgMCAxIC0uMDY4LS44NjQgNS40NDkgNS40NDkgMCAwIDEgMS4wMDQtMS45ODMgNi4wNDQgNi4wNDQgMCAwIDEgLjY4OC0uNzU5IDEwLjQyMyAxMC40MjMgMCAwIDEgLTEuNTIxLTEuNzIzeiIvPjwvZz48L3N2Zz4=;" vertex="1" parent="1">
          <mxGeometry x="570" y="2239" width="77.15" height="80" as="geometry" />
        </mxCell>
        <mxCell id="USx4_DVaHoe2_fVqXpNm-50" value="" style="edgeStyle=orthogonalEdgeStyle;rounded=0;orthogonalLoop=1;jettySize=auto;html=1;" edge="1" parent="1" source="USx4_DVaHoe2_fVqXpNm-46" target="USx4_DVaHoe2_fVqXpNm-45">
          <mxGeometry relative="1" as="geometry" />
        </mxCell>
        <mxCell id="USx4_DVaHoe2_fVqXpNm-46" value="ECR" style="sketch=0;points=[[0,0,0],[0.25,0,0],[0.5,0,0],[0.75,0,0],[1,0,0],[0,1,0],[0.25,1,0],[0.5,1,0],[0.75,1,0],[1,1,0],[0,0.25,0],[0,0.5,0],[0,0.75,0],[1,0.25,0],[1,0.5,0],[1,0.75,0]];outlineConnect=0;fontColor=#232F3E;fillColor=#ED7100;strokeColor=#ffffff;dashed=0;verticalLabelPosition=bottom;verticalAlign=top;align=center;html=1;fontSize=12;fontStyle=0;aspect=fixed;shape=mxgraph.aws4.resourceIcon;resIcon=mxgraph.aws4.ecr;" vertex="1" parent="1">
          <mxGeometry x="442" y="2240" width="78" height="78" as="geometry" />
        </mxCell>
        <mxCell id="USx4_DVaHoe2_fVqXpNm-47" value="EKS" style="sketch=0;points=[[0,0,0],[0.25,0,0],[0.5,0,0],[0.75,0,0],[1,0,0],[0,1,0],[0.25,1,0],[0.5,1,0],[0.75,1,0],[1,1,0],[0,0.25,0],[0,0.5,0],[0,0.75,0],[1,0.25,0],[1,0.5,0],[1,0.75,0]];outlineConnect=0;fontColor=#232F3E;fillColor=#ED7100;strokeColor=#ffffff;dashed=0;verticalLabelPosition=bottom;verticalAlign=top;align=center;html=1;fontSize=12;fontStyle=0;aspect=fixed;shape=mxgraph.aws4.resourceIcon;resIcon=mxgraph.aws4.eks;" vertex="1" parent="1">
          <mxGeometry x="700" y="2240" width="78" height="78" as="geometry" />
        </mxCell>
        <mxCell id="USx4_DVaHoe2_fVqXpNm-52" value="a. Leverage Kubernetes Service to deploy and manage the application" style="text;align=left;verticalAlign=middle;resizable=0;points=[];autosize=1;strokeColor=none;fillColor=none;fontColor=default;fontSize=16;" vertex="1" parent="1">
          <mxGeometry x="150" y="2180" width="520" height="30" as="geometry" />
        </mxCell>
        <mxCell id="USx4_DVaHoe2_fVqXpNm-53" value="&lt;font style=&quot;font-size: 16px;&quot;&gt;&lt;b&gt;b.&lt;/b&gt; Node Groups, Scaling, and Resource Allocation (AWS EKS):&lt;/font&gt;&lt;div style=&quot;text-align: left;&quot;&gt;&lt;font style=&quot;&quot;&gt;&lt;div&gt;&lt;span style=&quot;font-size: 14px;&quot;&gt;&lt;br&gt;&lt;/span&gt;&lt;/div&gt;&lt;div&gt;&lt;table style=&quot;background-color: transparent; color: light-dark(rgb(0, 0, 0), rgb(255, 255, 255));&quot;&gt;&lt;tbody&gt;&lt;tr&gt;&lt;td data-end=&quot;684&quot; data-start=&quot;440&quot; data-col-size=&quot;xl&quot;&gt;&lt;/td&gt;&lt;/tr&gt;&lt;/tbody&gt;&lt;/table&gt;&lt;/div&gt;&lt;/font&gt;&lt;/div&gt;" style="text;html=1;align=center;verticalAlign=middle;rounded=0;" vertex="1" parent="1">
          <mxGeometry x="340" y="2470" width="60" height="30" as="geometry" />
        </mxCell>
        <mxCell id="USx4_DVaHoe2_fVqXpNm-128" value="" style="shape=table;startSize=0;container=1;collapsible=0;childLayout=tableLayout;align=left;" vertex="1" parent="1">
          <mxGeometry x="160" y="1800" width="240" height="240" as="geometry" />
        </mxCell>
        <mxCell id="USx4_DVaHoe2_fVqXpNm-129" value="" style="shape=tableRow;horizontal=0;startSize=0;swimlaneHead=0;swimlaneBody=0;strokeColor=inherit;top=0;left=0;bottom=0;right=0;collapsible=0;dropTarget=0;fillColor=none;points=[[0,0.5],[1,0.5]];portConstraint=eastwest;" vertex="1" parent="USx4_DVaHoe2_fVqXpNm-128">
          <mxGeometry width="240" height="40" as="geometry" />
        </mxCell>
        <mxCell id="USx4_DVaHoe2_fVqXpNm-130" value="&lt;b&gt;VPC&lt;/b&gt;" style="shape=partialRectangle;html=1;whiteSpace=wrap;connectable=0;strokeColor=inherit;overflow=hidden;fillColor=none;top=0;left=0;bottom=0;right=0;pointerEvents=1;" vertex="1" parent="USx4_DVaHoe2_fVqXpNm-129">
          <mxGeometry width="70" height="40" as="geometry">
            <mxRectangle width="70" height="40" as="alternateBounds" />
          </mxGeometry>
        </mxCell>
        <mxCell id="USx4_DVaHoe2_fVqXpNm-131" value="&amp;nbsp;Public/private subnet split, no public DB access" style="shape=partialRectangle;html=1;whiteSpace=wrap;connectable=0;strokeColor=inherit;overflow=hidden;fillColor=none;top=0;left=0;bottom=0;right=0;pointerEvents=1;align=left;spacingLeft=4;" vertex="1" parent="USx4_DVaHoe2_fVqXpNm-129">
          <mxGeometry x="70" width="170" height="40" as="geometry">
            <mxRectangle width="170" height="40" as="alternateBounds" />
          </mxGeometry>
        </mxCell>
        <mxCell id="USx4_DVaHoe2_fVqXpNm-132" value="" style="shape=tableRow;horizontal=0;startSize=0;swimlaneHead=0;swimlaneBody=0;strokeColor=inherit;top=0;left=0;bottom=0;right=0;collapsible=0;dropTarget=0;fillColor=none;points=[[0,0.5],[1,0.5]];portConstraint=eastwest;" vertex="1" parent="USx4_DVaHoe2_fVqXpNm-128">
          <mxGeometry y="40" width="240" height="40" as="geometry" />
        </mxCell>
        <mxCell id="USx4_DVaHoe2_fVqXpNm-133" value="&lt;b&gt;Routing&lt;/b&gt;" style="shape=partialRectangle;html=1;whiteSpace=wrap;connectable=0;strokeColor=inherit;overflow=hidden;fillColor=none;top=0;left=0;bottom=0;right=0;pointerEvents=1;" vertex="1" parent="USx4_DVaHoe2_fVqXpNm-132">
          <mxGeometry width="70" height="40" as="geometry">
            <mxRectangle width="70" height="40" as="alternateBounds" />
          </mxGeometry>
        </mxCell>
        <mxCell id="USx4_DVaHoe2_fVqXpNm-134" value="&amp;nbsp;NAT for outbound, Gateway Endpoints for AWS services" style="shape=partialRectangle;html=1;whiteSpace=wrap;connectable=0;strokeColor=inherit;overflow=hidden;fillColor=none;top=0;left=0;bottom=0;right=0;pointerEvents=1;align=left;spacingLeft=4;" vertex="1" parent="USx4_DVaHoe2_fVqXpNm-132">
          <mxGeometry x="70" width="170" height="40" as="geometry">
            <mxRectangle width="170" height="40" as="alternateBounds" />
          </mxGeometry>
        </mxCell>
        <mxCell id="USx4_DVaHoe2_fVqXpNm-135" value="" style="shape=tableRow;horizontal=0;startSize=0;swimlaneHead=0;swimlaneBody=0;strokeColor=inherit;top=0;left=0;bottom=0;right=0;collapsible=0;dropTarget=0;fillColor=none;points=[[0,0.5],[1,0.5]];portConstraint=eastwest;" vertex="1" parent="USx4_DVaHoe2_fVqXpNm-128">
          <mxGeometry y="80" width="240" height="40" as="geometry" />
        </mxCell>
        <mxCell id="USx4_DVaHoe2_fVqXpNm-136" value="&lt;b&gt;Security Groups&amp;nbsp;&lt;/b&gt;" style="shape=partialRectangle;html=1;whiteSpace=wrap;connectable=0;strokeColor=inherit;overflow=hidden;fillColor=none;top=0;left=0;bottom=0;right=0;pointerEvents=1;" vertex="1" parent="USx4_DVaHoe2_fVqXpNm-135">
          <mxGeometry width="70" height="40" as="geometry">
            <mxRectangle width="70" height="40" as="alternateBounds" />
          </mxGeometry>
        </mxCell>
        <mxCell id="USx4_DVaHoe2_fVqXpNm-137" value="&amp;nbsp;Least-privilege per resource" style="shape=partialRectangle;html=1;whiteSpace=wrap;connectable=0;strokeColor=inherit;overflow=hidden;fillColor=none;top=0;left=0;bottom=0;right=0;pointerEvents=1;align=left;spacingLeft=4;" vertex="1" parent="USx4_DVaHoe2_fVqXpNm-135">
          <mxGeometry x="70" width="170" height="40" as="geometry">
            <mxRectangle width="170" height="40" as="alternateBounds" />
          </mxGeometry>
        </mxCell>
        <mxCell id="USx4_DVaHoe2_fVqXpNm-138" value="" style="shape=tableRow;horizontal=0;startSize=0;swimlaneHead=0;swimlaneBody=0;strokeColor=inherit;top=0;left=0;bottom=0;right=0;collapsible=0;dropTarget=0;fillColor=none;points=[[0,0.5],[1,0.5]];portConstraint=eastwest;" vertex="1" parent="USx4_DVaHoe2_fVqXpNm-128">
          <mxGeometry y="120" width="240" height="40" as="geometry" />
        </mxCell>
        <mxCell id="USx4_DVaHoe2_fVqXpNm-139" value="&lt;b&gt;TLS &amp;amp; Ingress&lt;/b&gt;" style="shape=partialRectangle;html=1;whiteSpace=wrap;connectable=0;strokeColor=inherit;overflow=hidden;fillColor=none;top=0;left=0;bottom=0;right=0;pointerEvents=1;" vertex="1" parent="USx4_DVaHoe2_fVqXpNm-138">
          <mxGeometry width="70" height="40" as="geometry">
            <mxRectangle width="70" height="40" as="alternateBounds" />
          </mxGeometry>
        </mxCell>
        <mxCell id="USx4_DVaHoe2_fVqXpNm-140" value="&amp;nbsp;HTTPS via ALB + ACM, WAF, path-based routing" style="shape=partialRectangle;html=1;whiteSpace=wrap;connectable=0;strokeColor=inherit;overflow=hidden;fillColor=none;top=0;left=0;bottom=0;right=0;pointerEvents=1;align=left;spacingLeft=4;" vertex="1" parent="USx4_DVaHoe2_fVqXpNm-138">
          <mxGeometry x="70" width="170" height="40" as="geometry">
            <mxRectangle width="170" height="40" as="alternateBounds" />
          </mxGeometry>
        </mxCell>
        <mxCell id="USx4_DVaHoe2_fVqXpNm-141" value="" style="shape=tableRow;horizontal=0;startSize=0;swimlaneHead=0;swimlaneBody=0;strokeColor=inherit;top=0;left=0;bottom=0;right=0;collapsible=0;dropTarget=0;fillColor=none;points=[[0,0.5],[1,0.5]];portConstraint=eastwest;" vertex="1" parent="USx4_DVaHoe2_fVqXpNm-128">
          <mxGeometry y="160" width="240" height="40" as="geometry" />
        </mxCell>
        <mxCell id="USx4_DVaHoe2_fVqXpNm-142" value="&lt;b&gt;Logging &amp;amp; Monitoring&lt;/b&gt;" style="shape=partialRectangle;html=1;whiteSpace=wrap;connectable=0;strokeColor=inherit;overflow=hidden;fillColor=none;top=0;left=0;bottom=0;right=0;pointerEvents=1;" vertex="1" parent="USx4_DVaHoe2_fVqXpNm-141">
          <mxGeometry width="70" height="40" as="geometry">
            <mxRectangle width="70" height="40" as="alternateBounds" />
          </mxGeometry>
        </mxCell>
        <mxCell id="USx4_DVaHoe2_fVqXpNm-143" value="&amp;nbsp;VPC Flow Logs, Fluent Bit, CloudWatch" style="shape=partialRectangle;html=1;whiteSpace=wrap;connectable=0;strokeColor=inherit;overflow=hidden;fillColor=none;top=0;left=0;bottom=0;right=0;pointerEvents=1;align=left;spacingLeft=4;" vertex="1" parent="USx4_DVaHoe2_fVqXpNm-141">
          <mxGeometry x="70" width="170" height="40" as="geometry">
            <mxRectangle width="170" height="40" as="alternateBounds" />
          </mxGeometry>
        </mxCell>
        <mxCell id="USx4_DVaHoe2_fVqXpNm-144" value="" style="shape=tableRow;horizontal=0;startSize=0;swimlaneHead=0;swimlaneBody=0;strokeColor=inherit;top=0;left=0;bottom=0;right=0;collapsible=0;dropTarget=0;fillColor=none;points=[[0,0.5],[1,0.5]];portConstraint=eastwest;" vertex="1" parent="USx4_DVaHoe2_fVqXpNm-128">
          <mxGeometry y="200" width="240" height="40" as="geometry" />
        </mxCell>
        <mxCell id="USx4_DVaHoe2_fVqXpNm-145" value="&lt;b&gt;Threat Detection&lt;/b&gt;" style="shape=partialRectangle;html=1;whiteSpace=wrap;connectable=0;strokeColor=inherit;overflow=hidden;fillColor=none;top=0;left=0;bottom=0;right=0;pointerEvents=1;" vertex="1" parent="USx4_DVaHoe2_fVqXpNm-144">
          <mxGeometry width="70" height="40" as="geometry">
            <mxRectangle width="70" height="40" as="alternateBounds" />
          </mxGeometry>
        </mxCell>
        <mxCell id="USx4_DVaHoe2_fVqXpNm-146" value="&amp;nbsp;GuardDuty, CloudTrail" style="shape=partialRectangle;html=1;whiteSpace=wrap;connectable=0;strokeColor=inherit;overflow=hidden;fillColor=none;top=0;left=0;bottom=0;right=0;pointerEvents=1;align=left;spacingLeft=4;" vertex="1" parent="USx4_DVaHoe2_fVqXpNm-144">
          <mxGeometry x="70" width="170" height="40" as="geometry">
            <mxRectangle width="170" height="40" as="alternateBounds" />
          </mxGeometry>
        </mxCell>
        <mxCell id="USx4_DVaHoe2_fVqXpNm-152" value="" style="shape=table;startSize=0;container=1;collapsible=0;childLayout=tableLayout;" vertex="1" parent="1">
          <mxGeometry x="144" y="2500" width="452" height="160" as="geometry" />
        </mxCell>
        <mxCell id="USx4_DVaHoe2_fVqXpNm-153" value="" style="shape=tableRow;horizontal=0;startSize=0;swimlaneHead=0;swimlaneBody=0;strokeColor=inherit;top=0;left=0;bottom=0;right=0;collapsible=0;dropTarget=0;fillColor=none;points=[[0,0.5],[1,0.5]];portConstraint=eastwest;" vertex="1" parent="USx4_DVaHoe2_fVqXpNm-152">
          <mxGeometry width="452" height="60" as="geometry" />
        </mxCell>
        <mxCell id="USx4_DVaHoe2_fVqXpNm-154" value="&lt;b&gt;Node Groups&amp;nbsp;&lt;/b&gt;" style="shape=partialRectangle;html=1;whiteSpace=wrap;connectable=0;strokeColor=inherit;overflow=hidden;fillColor=none;top=0;left=0;bottom=0;right=0;pointerEvents=1;" vertex="1" parent="USx4_DVaHoe2_fVqXpNm-153">
          <mxGeometry width="60" height="60" as="geometry">
            <mxRectangle width="60" height="60" as="alternateBounds" />
          </mxGeometry>
        </mxCell>
        <mxCell id="USx4_DVaHoe2_fVqXpNm-155" value="&lt;div&gt;&amp;nbsp;- backend-group: c6i.large for Flask API services&lt;/div&gt;&lt;div&gt;&lt;span style=&quot;white-space: normal;&quot;&gt;&amp;nbsp;- job-group: m6a.large Spot instances for background tasks&lt;/span&gt;&lt;/div&gt;&lt;div&gt;&lt;span style=&quot;white-space: normal;&quot;&gt;&amp;nbsp;- system-group: t3.medium for Ingress, monitoring, DNS&lt;/span&gt;&lt;/div&gt;" style="shape=partialRectangle;html=1;whiteSpace=wrap;connectable=0;strokeColor=inherit;overflow=hidden;fillColor=none;top=0;left=0;bottom=0;right=0;pointerEvents=1;align=left;" vertex="1" parent="USx4_DVaHoe2_fVqXpNm-153">
          <mxGeometry x="60" width="392" height="60" as="geometry">
            <mxRectangle width="392" height="60" as="alternateBounds" />
          </mxGeometry>
        </mxCell>
        <mxCell id="USx4_DVaHoe2_fVqXpNm-156" value="" style="shape=tableRow;horizontal=0;startSize=0;swimlaneHead=0;swimlaneBody=0;strokeColor=inherit;top=0;left=0;bottom=0;right=0;collapsible=0;dropTarget=0;fillColor=none;points=[[0,0.5],[1,0.5]];portConstraint=eastwest;" vertex="1" parent="USx4_DVaHoe2_fVqXpNm-152">
          <mxGeometry y="60" width="452" height="60" as="geometry" />
        </mxCell>
        <mxCell id="USx4_DVaHoe2_fVqXpNm-157" value="&lt;b&gt;Scaling&lt;/b&gt;" style="shape=partialRectangle;html=1;whiteSpace=wrap;connectable=0;strokeColor=inherit;overflow=hidden;fillColor=none;top=0;left=0;bottom=0;right=0;pointerEvents=1;" vertex="1" parent="USx4_DVaHoe2_fVqXpNm-156">
          <mxGeometry width="60" height="60" as="geometry">
            <mxRectangle width="60" height="60" as="alternateBounds" />
          </mxGeometry>
        </mxCell>
        <mxCell id="USx4_DVaHoe2_fVqXpNm-158" value="&lt;div&gt;&lt;span style=&quot;background-color: transparent; color: light-dark(rgb(0, 0, 0), rgb(255, 255, 255));&quot;&gt;&lt;br&gt;&lt;/span&gt;&lt;/div&gt;&lt;div&gt;&lt;span style=&quot;background-color: transparent; color: light-dark(rgb(0, 0, 0), rgb(255, 255, 255));&quot;&gt;&amp;nbsp;- Cluster Autoscaler or Karpenter to dynamically adjust node count&lt;/span&gt;&lt;/div&gt;&lt;div&gt;&amp;nbsp;- Horizontal Pod Autoscaler (HPA) based on CPU/memory/custom metric&lt;/div&gt;&lt;div&gt;&amp;nbsp;- Vertical Pod Autoscaler (VPA) for optimizing pod resources&lt;/div&gt;&lt;div&gt;&lt;br style=&quot;text-align: center;&quot;&gt;&lt;/div&gt;" style="shape=partialRectangle;html=1;whiteSpace=wrap;connectable=0;strokeColor=inherit;overflow=hidden;fillColor=none;top=0;left=0;bottom=0;right=0;pointerEvents=1;align=left;" vertex="1" parent="USx4_DVaHoe2_fVqXpNm-156">
          <mxGeometry x="60" width="392" height="60" as="geometry">
            <mxRectangle width="392" height="60" as="alternateBounds" />
          </mxGeometry>
        </mxCell>
        <mxCell id="USx4_DVaHoe2_fVqXpNm-159" value="" style="shape=tableRow;horizontal=0;startSize=0;swimlaneHead=0;swimlaneBody=0;strokeColor=inherit;top=0;left=0;bottom=0;right=0;collapsible=0;dropTarget=0;fillColor=none;points=[[0,0.5],[1,0.5]];portConstraint=eastwest;" vertex="1" parent="USx4_DVaHoe2_fVqXpNm-152">
          <mxGeometry y="120" width="452" height="40" as="geometry" />
        </mxCell>
        <mxCell id="USx4_DVaHoe2_fVqXpNm-160" value="&lt;b&gt;Resource Allocation&lt;/b&gt;" style="shape=partialRectangle;html=1;whiteSpace=wrap;connectable=0;strokeColor=inherit;overflow=hidden;fillColor=none;top=0;left=0;bottom=0;right=0;pointerEvents=1;" vertex="1" parent="USx4_DVaHoe2_fVqXpNm-159">
          <mxGeometry width="60" height="40" as="geometry">
            <mxRectangle width="60" height="40" as="alternateBounds" />
          </mxGeometry>
        </mxCell>
        <mxCell id="USx4_DVaHoe2_fVqXpNm-161" value="&lt;div&gt;&amp;nbsp;- Backend: 500m–1 vCPU, 512Mi–2Gi RAM&lt;/div&gt;&lt;div&gt;&amp;nbsp;- Jobs: per-task defined requests/limits&lt;/div&gt;" style="shape=partialRectangle;html=1;whiteSpace=wrap;connectable=0;strokeColor=inherit;overflow=hidden;fillColor=none;top=0;left=0;bottom=0;right=0;pointerEvents=1;align=left;" vertex="1" parent="USx4_DVaHoe2_fVqXpNm-159">
          <mxGeometry x="60" width="392" height="40" as="geometry">
            <mxRectangle width="392" height="40" as="alternateBounds" />
          </mxGeometry>
        </mxCell>
        <mxCell id="USx4_DVaHoe2_fVqXpNm-164" value="" style="endArrow=classic;html=1;rounded=0;entryX=0.5;entryY=0;entryDx=0;entryDy=0;" edge="1" parent="1" source="USx4_DVaHoe2_fVqXpNm-2" target="USx4_DVaHoe2_fVqXpNm-16">
          <mxGeometry width="50" height="50" relative="1" as="geometry">
            <mxPoint x="236.5" y="473.27495049504967" as="sourcePoint" />
            <mxPoint x="380" y="440" as="targetPoint" />
          </mxGeometry>
        </mxCell>
        <mxCell id="USx4_DVaHoe2_fVqXpNm-165" value="" style="endArrow=classic;html=1;rounded=0;entryX=0.5;entryY=0;entryDx=0;entryDy=0;" edge="1" parent="1" source="USx4_DVaHoe2_fVqXpNm-2" target="USx4_DVaHoe2_fVqXpNm-4">
          <mxGeometry width="50" height="50" relative="1" as="geometry">
            <mxPoint x="230" y="450" as="sourcePoint" />
            <mxPoint x="280" y="400" as="targetPoint" />
          </mxGeometry>
        </mxCell>
        <mxCell id="USx4_DVaHoe2_fVqXpNm-167" value="&lt;div style=&quot;text-align: left;&quot;&gt;&lt;span style=&quot;font-size: 16px; background-color: transparent; color: light-dark(rgb(0, 0, 0), rgb(255, 255, 255));&quot;&gt;&lt;span style=&quot;white-space-collapse: preserve;&quot;&gt;&#x9;&lt;/span&gt;&lt;span style=&quot;white-space-collapse: preserve;&quot;&gt;&#x9;&lt;/span&gt;&lt;span style=&quot;white-space-collapse: preserve;&quot;&gt;&#x9;&lt;/span&gt;&lt;span style=&quot;white-space-collapse: preserve;&quot;&gt;&#x9;&lt;/span&gt;&lt;b&gt;c.&lt;/b&gt;&amp;nbsp;&lt;/span&gt;&lt;span style=&quot;font-size: 16px; background-color: transparent; color: light-dark(rgb(0, 0, 0), rgb(255, 255, 255));&quot;&gt;Containerization Strategy&lt;/span&gt;&lt;/div&gt;&lt;div style=&quot;text-align: left;&quot;&gt;&lt;span style=&quot;color: light-dark(rgb(0, 0, 0), rgb(255, 255, 255)); background-color: transparent;&quot;&gt;&lt;br&gt;&lt;/span&gt;&lt;/div&gt;" style="text;html=1;align=center;verticalAlign=middle;resizable=0;points=[];autosize=1;strokeColor=none;fillColor=none;" vertex="1" parent="1">
          <mxGeometry x="-5" y="2720" width="360" height="50" as="geometry" />
        </mxCell>
        <mxCell id="USx4_DVaHoe2_fVqXpNm-168" value="" style="shape=table;startSize=0;container=1;collapsible=0;childLayout=tableLayout;spacingLeft=2;whiteSpace=wrap;align=left;" vertex="1" parent="1">
          <mxGeometry x="144" y="2760" width="330" height="370" as="geometry" />
        </mxCell>
        <mxCell id="USx4_DVaHoe2_fVqXpNm-169" value="" style="shape=tableRow;horizontal=0;startSize=0;swimlaneHead=0;swimlaneBody=0;strokeColor=inherit;top=0;left=0;bottom=0;right=0;collapsible=0;dropTarget=0;fillColor=none;points=[[0,0.5],[1,0.5]];portConstraint=eastwest;" vertex="1" parent="USx4_DVaHoe2_fVqXpNm-168">
          <mxGeometry width="330" height="80" as="geometry" />
        </mxCell>
        <mxCell id="USx4_DVaHoe2_fVqXpNm-170" value="&lt;table&gt;&lt;tbody&gt;&lt;tr&gt;&lt;td data-col-size=&quot;sm&quot; data-end=&quot;572&quot; data-start=&quot;550&quot;&gt;&lt;strong data-end=&quot;570&quot; data-start=&quot;552&quot;&gt;Image Building&lt;/strong&gt;&lt;/td&gt;&lt;/tr&gt;&lt;/tbody&gt;&lt;/table&gt;&lt;table&gt;&lt;tbody&gt;&lt;tr&gt;&lt;td data-col-size=&quot;xl&quot; data-end=&quot;796&quot; data-start=&quot;572&quot;&gt;&lt;/td&gt;&lt;/tr&gt;&lt;/tbody&gt;&lt;/table&gt;" style="shape=partialRectangle;html=1;whiteSpace=wrap;connectable=0;strokeColor=inherit;overflow=hidden;fillColor=none;top=0;left=0;bottom=0;right=0;pointerEvents=1;" vertex="1" parent="USx4_DVaHoe2_fVqXpNm-169">
          <mxGeometry width="80" height="80" as="geometry">
            <mxRectangle width="80" height="80" as="alternateBounds" />
          </mxGeometry>
        </mxCell>
        <mxCell id="USx4_DVaHoe2_fVqXpNm-171" value="&lt;div&gt;- Use multi-stage Dockerfiles for efficient builds&lt;/div&gt;&lt;div&gt;&lt;span style=&quot;background-color: transparent; color: light-dark(rgb(0, 0, 0), rgb(255, 255, 255));&quot;&gt;- Backend: python:3.11-slim with pinned dependencies&lt;/span&gt;&lt;/div&gt;&lt;div&gt;- Minimize image size and surface area&lt;/div&gt;" style="shape=partialRectangle;html=1;whiteSpace=wrap;connectable=0;strokeColor=inherit;overflow=hidden;fillColor=none;top=0;left=0;bottom=0;right=0;pointerEvents=1;align=left;spacingLeft=4;" vertex="1" parent="USx4_DVaHoe2_fVqXpNm-169">
          <mxGeometry x="80" width="250" height="80" as="geometry">
            <mxRectangle width="250" height="80" as="alternateBounds" />
          </mxGeometry>
        </mxCell>
        <mxCell id="USx4_DVaHoe2_fVqXpNm-172" value="" style="shape=tableRow;horizontal=0;startSize=0;swimlaneHead=0;swimlaneBody=0;strokeColor=inherit;top=0;left=0;bottom=0;right=0;collapsible=0;dropTarget=0;fillColor=none;points=[[0,0.5],[1,0.5]];portConstraint=eastwest;" vertex="1" parent="USx4_DVaHoe2_fVqXpNm-168">
          <mxGeometry y="80" width="330" height="50" as="geometry" />
        </mxCell>
        <mxCell id="USx4_DVaHoe2_fVqXpNm-173" value="&lt;b&gt;Tagging&lt;/b&gt;" style="shape=partialRectangle;html=1;whiteSpace=wrap;connectable=0;strokeColor=inherit;overflow=hidden;fillColor=none;top=0;left=0;bottom=0;right=0;pointerEvents=1;" vertex="1" parent="USx4_DVaHoe2_fVqXpNm-172">
          <mxGeometry width="80" height="50" as="geometry">
            <mxRectangle width="80" height="50" as="alternateBounds" />
          </mxGeometry>
        </mxCell>
        <mxCell id="USx4_DVaHoe2_fVqXpNm-174" value="- Tag images using Git SHA, semantic versioning (e.g., v1.0.0), or latest per environment" style="shape=partialRectangle;html=1;whiteSpace=wrap;connectable=0;strokeColor=inherit;overflow=hidden;fillColor=none;top=0;left=0;bottom=0;right=0;pointerEvents=1;align=left;spacingLeft=4;" vertex="1" parent="USx4_DVaHoe2_fVqXpNm-172">
          <mxGeometry x="80" width="250" height="50" as="geometry">
            <mxRectangle width="250" height="50" as="alternateBounds" />
          </mxGeometry>
        </mxCell>
        <mxCell id="USx4_DVaHoe2_fVqXpNm-175" value="" style="shape=tableRow;horizontal=0;startSize=0;swimlaneHead=0;swimlaneBody=0;strokeColor=inherit;top=0;left=0;bottom=0;right=0;collapsible=0;dropTarget=0;fillColor=none;points=[[0,0.5],[1,0.5]];portConstraint=eastwest;" vertex="1" parent="USx4_DVaHoe2_fVqXpNm-168">
          <mxGeometry y="130" width="330" height="50" as="geometry" />
        </mxCell>
        <mxCell id="USx4_DVaHoe2_fVqXpNm-176" value="&lt;strong data-end=&quot;988&quot; data-start=&quot;967&quot;&gt;Security Scanning&lt;/strong&gt;&lt;div&gt;&lt;strong data-end=&quot;988&quot; data-start=&quot;967&quot;&gt;&lt;br&gt;&lt;/strong&gt;&lt;/div&gt;" style="shape=partialRectangle;html=1;whiteSpace=wrap;connectable=0;strokeColor=inherit;overflow=hidden;fillColor=none;top=0;left=0;bottom=0;right=0;pointerEvents=1;" vertex="1" parent="USx4_DVaHoe2_fVqXpNm-175">
          <mxGeometry width="80" height="50" as="geometry">
            <mxRectangle width="80" height="50" as="alternateBounds" />
          </mxGeometry>
        </mxCell>
        <mxCell id="USx4_DVaHoe2_fVqXpNm-177" value="- Integrate Amazon Inspector in CI/CD to scan images for vulnerabilities during build and post-push" style="shape=partialRectangle;html=1;whiteSpace=wrap;connectable=0;strokeColor=inherit;overflow=hidden;fillColor=none;top=0;left=0;bottom=0;right=0;pointerEvents=1;align=left;spacingLeft=4;" vertex="1" parent="USx4_DVaHoe2_fVqXpNm-175">
          <mxGeometry x="80" width="250" height="50" as="geometry">
            <mxRectangle width="250" height="50" as="alternateBounds" />
          </mxGeometry>
        </mxCell>
        <mxCell id="USx4_DVaHoe2_fVqXpNm-178" value="" style="shape=tableRow;horizontal=0;startSize=0;swimlaneHead=0;swimlaneBody=0;strokeColor=inherit;top=0;left=0;bottom=0;right=0;collapsible=0;dropTarget=0;fillColor=none;points=[[0,0.5],[1,0.5]];portConstraint=eastwest;" vertex="1" parent="USx4_DVaHoe2_fVqXpNm-168">
          <mxGeometry y="180" width="330" height="70" as="geometry" />
        </mxCell>
        <mxCell id="USx4_DVaHoe2_fVqXpNm-179" value="&lt;b&gt;Registry&lt;/b&gt;" style="shape=partialRectangle;html=1;whiteSpace=wrap;connectable=0;strokeColor=inherit;overflow=hidden;fillColor=none;top=0;left=0;bottom=0;right=0;pointerEvents=1;" vertex="1" parent="USx4_DVaHoe2_fVqXpNm-178">
          <mxGeometry width="80" height="70" as="geometry">
            <mxRectangle width="80" height="70" as="alternateBounds" />
          </mxGeometry>
        </mxCell>
        <mxCell id="USx4_DVaHoe2_fVqXpNm-180" value="&lt;div&gt;&lt;span style=&quot;white-space: normal;&quot;&gt;- Push images to Amazon Elastic Container Registry (ECR)&lt;/span&gt;&lt;/div&gt;&lt;div&gt;- Enable lifecycle policies to remove untagged or stale images&lt;/div&gt;" style="shape=partialRectangle;html=1;whiteSpace=wrap;connectable=0;strokeColor=inherit;overflow=hidden;fillColor=none;top=0;left=0;bottom=0;right=0;pointerEvents=1;align=left;spacingLeft=4;" vertex="1" parent="USx4_DVaHoe2_fVqXpNm-178">
          <mxGeometry x="80" width="250" height="70" as="geometry">
            <mxRectangle width="250" height="70" as="alternateBounds" />
          </mxGeometry>
        </mxCell>
        <mxCell id="USx4_DVaHoe2_fVqXpNm-181" value="" style="shape=tableRow;horizontal=0;startSize=0;swimlaneHead=0;swimlaneBody=0;strokeColor=inherit;top=0;left=0;bottom=0;right=0;collapsible=0;dropTarget=0;fillColor=none;points=[[0,0.5],[1,0.5]];portConstraint=eastwest;" vertex="1" parent="USx4_DVaHoe2_fVqXpNm-168">
          <mxGeometry y="250" width="330" height="80" as="geometry" />
        </mxCell>
        <mxCell id="USx4_DVaHoe2_fVqXpNm-182" value="&lt;strong data-end=&quot;1320&quot; data-start=&quot;1303&quot;&gt;CI/CD Process&lt;/strong&gt;&lt;div&gt;&lt;strong data-end=&quot;1320&quot; data-start=&quot;1303&quot;&gt;&lt;br&gt;&lt;/strong&gt;&lt;/div&gt;" style="shape=partialRectangle;html=1;whiteSpace=wrap;connectable=0;strokeColor=inherit;overflow=hidden;fillColor=none;top=0;left=0;bottom=0;right=0;pointerEvents=1;" vertex="1" parent="USx4_DVaHoe2_fVqXpNm-181">
          <mxGeometry width="80" height="80" as="geometry">
            <mxRectangle width="80" height="80" as="alternateBounds" />
          </mxGeometry>
        </mxCell>
        <mxCell id="USx4_DVaHoe2_fVqXpNm-183" value="&lt;div style=&quot;text-align: left;&quot;&gt;- Use GitHub Actions or AWS CodePipeline to automate:&lt;/div&gt;&lt;div style=&quot;text-align: left;&quot;&gt;- Code test → Docker build → Push to ECR&lt;/div&gt;&lt;div style=&quot;text-align: left;&quot;&gt;&lt;span style=&quot;background-color: transparent; color: light-dark(rgb(0, 0, 0), rgb(255, 255, 255)); text-align: center;&quot;&gt;- Deploy to EKS via Helm, kubectl, or Argo CD&lt;/span&gt;&lt;/div&gt;" style="shape=partialRectangle;html=1;whiteSpace=wrap;connectable=0;strokeColor=inherit;overflow=hidden;fillColor=none;top=0;left=0;bottom=0;right=0;pointerEvents=1;spacingLeft=4;" vertex="1" parent="USx4_DVaHoe2_fVqXpNm-181">
          <mxGeometry x="80" width="250" height="80" as="geometry">
            <mxRectangle width="250" height="80" as="alternateBounds" />
          </mxGeometry>
        </mxCell>
        <mxCell id="USx4_DVaHoe2_fVqXpNm-184" value="" style="shape=tableRow;horizontal=0;startSize=0;swimlaneHead=0;swimlaneBody=0;strokeColor=inherit;top=0;left=0;bottom=0;right=0;collapsible=0;dropTarget=0;fillColor=none;points=[[0,0.5],[1,0.5]];portConstraint=eastwest;" vertex="1" parent="USx4_DVaHoe2_fVqXpNm-168">
          <mxGeometry y="330" width="330" height="40" as="geometry" />
        </mxCell>
        <mxCell id="USx4_DVaHoe2_fVqXpNm-185" value="&lt;strong data-end=&quot;1685&quot; data-start=&quot;1662&quot;&gt;Deployment Strategy&lt;/strong&gt;&lt;div&gt;&lt;strong data-end=&quot;1685&quot; data-start=&quot;1662&quot;&gt;&lt;br&gt;&lt;/strong&gt;&lt;/div&gt;" style="shape=partialRectangle;html=1;whiteSpace=wrap;connectable=0;strokeColor=inherit;overflow=hidden;fillColor=none;top=0;left=0;bottom=0;right=0;pointerEvents=1;" vertex="1" parent="USx4_DVaHoe2_fVqXpNm-184">
          <mxGeometry width="80" height="40" as="geometry">
            <mxRectangle width="80" height="40" as="alternateBounds" />
          </mxGeometry>
        </mxCell>
        <mxCell id="USx4_DVaHoe2_fVqXpNm-186" value="- Use Kubernetes Deployments with rolling updates" style="shape=partialRectangle;html=1;whiteSpace=wrap;connectable=0;strokeColor=inherit;overflow=hidden;fillColor=none;top=0;left=0;bottom=0;right=0;pointerEvents=1;align=left;spacingLeft=4;" vertex="1" parent="USx4_DVaHoe2_fVqXpNm-184">
          <mxGeometry x="80" width="250" height="40" as="geometry">
            <mxRectangle width="250" height="40" as="alternateBounds" />
          </mxGeometry>
        </mxCell>
        <mxCell id="USx4_DVaHoe2_fVqXpNm-187" value="&lt;span style=&quot;font-weight: 700; color: rgb(23, 43, 77); font-family: -apple-system, &amp;quot;system-ui&amp;quot;, &amp;quot;Segoe UI&amp;quot;, Roboto, &amp;quot;Noto Sans&amp;quot;, Ubuntu, &amp;quot;Droid Sans&amp;quot;, &amp;quot;Helvetica Neue&amp;quot;, sans-serif; letter-spacing: -0.07px; text-align: left; white-space-collapse: preserve; background-color: rgb(255, 255, 255);&quot; data-renderer-mark=&quot;true&quot;&gt;&lt;font style=&quot;font-size: 25px;&quot;&gt;4. Database&lt;/font&gt;&lt;/span&gt;" style="text;html=1;align=center;verticalAlign=middle;whiteSpace=wrap;rounded=0;" vertex="1" parent="1">
          <mxGeometry x="132" y="3200" width="180" height="30" as="geometry" />
        </mxCell>
        <mxCell id="USx4_DVaHoe2_fVqXpNm-188" value="&lt;font style=&quot;font-size: 14px;&quot;&gt;&lt;b&gt;Amazon Aurora Serverless v2&lt;/b&gt; is a powerful, fully managed, auto-scaling database ideal for startups, development environments, and bursty workloads&lt;/font&gt;" style="text;html=1;align=left;verticalAlign=middle;whiteSpace=wrap;rounded=0;" vertex="1" parent="1">
          <mxGeometry x="144" y="3260" width="328" height="30" as="geometry" />
        </mxCell>
        <mxCell id="USx4_DVaHoe2_fVqXpNm-190" value="" style="shape=table;startSize=0;container=1;collapsible=0;childLayout=tableLayout;spacingLeft=2;align=left;" vertex="1" parent="1">
          <mxGeometry x="144" y="3320" width="366" height="260" as="geometry" />
        </mxCell>
        <mxCell id="USx4_DVaHoe2_fVqXpNm-191" value="" style="shape=tableRow;horizontal=0;startSize=0;swimlaneHead=0;swimlaneBody=0;strokeColor=inherit;top=0;left=0;bottom=0;right=0;collapsible=0;dropTarget=0;fillColor=none;points=[[0,0.5],[1,0.5]];portConstraint=eastwest;" vertex="1" parent="USx4_DVaHoe2_fVqXpNm-190">
          <mxGeometry width="366" height="40" as="geometry" />
        </mxCell>
        <mxCell id="USx4_DVaHoe2_fVqXpNm-192" value="" style="shape=partialRectangle;html=1;whiteSpace=wrap;connectable=0;strokeColor=inherit;overflow=hidden;fillColor=none;top=0;left=0;bottom=0;right=0;pointerEvents=1;" vertex="1" parent="USx4_DVaHoe2_fVqXpNm-191">
          <mxGeometry width="96" height="40" as="geometry">
            <mxRectangle width="96" height="40" as="alternateBounds" />
          </mxGeometry>
        </mxCell>
        <mxCell id="USx4_DVaHoe2_fVqXpNm-193" value="&lt;b&gt;Pros&lt;/b&gt;" style="shape=partialRectangle;html=1;whiteSpace=wrap;connectable=0;strokeColor=inherit;overflow=hidden;fillColor=none;top=0;left=0;bottom=0;right=0;pointerEvents=1;" vertex="1" parent="USx4_DVaHoe2_fVqXpNm-191">
          <mxGeometry x="96" width="140" height="40" as="geometry">
            <mxRectangle width="140" height="40" as="alternateBounds" />
          </mxGeometry>
        </mxCell>
        <mxCell id="USx4_DVaHoe2_fVqXpNm-194" value="&lt;b&gt;Cons&lt;/b&gt;" style="shape=partialRectangle;html=1;whiteSpace=wrap;connectable=0;strokeColor=inherit;overflow=hidden;fillColor=none;top=0;left=0;bottom=0;right=0;pointerEvents=1;" vertex="1" parent="USx4_DVaHoe2_fVqXpNm-191">
          <mxGeometry x="236" width="130" height="40" as="geometry">
            <mxRectangle width="130" height="40" as="alternateBounds" />
          </mxGeometry>
        </mxCell>
        <mxCell id="USx4_DVaHoe2_fVqXpNm-195" value="" style="shape=tableRow;horizontal=0;startSize=0;swimlaneHead=0;swimlaneBody=0;strokeColor=inherit;top=0;left=0;bottom=0;right=0;collapsible=0;dropTarget=0;fillColor=none;points=[[0,0.5],[1,0.5]];portConstraint=eastwest;" vertex="1" parent="USx4_DVaHoe2_fVqXpNm-190">
          <mxGeometry y="40" width="366" height="70" as="geometry" />
        </mxCell>
        <mxCell id="USx4_DVaHoe2_fVqXpNm-196" value="&lt;b&gt;Scalability&lt;/b&gt;" style="shape=partialRectangle;html=1;whiteSpace=wrap;connectable=0;strokeColor=inherit;overflow=hidden;fillColor=none;top=0;left=0;bottom=0;right=0;pointerEvents=1;" vertex="1" parent="USx4_DVaHoe2_fVqXpNm-195">
          <mxGeometry width="96" height="70" as="geometry">
            <mxRectangle width="96" height="70" as="alternateBounds" />
          </mxGeometry>
        </mxCell>
        <mxCell id="USx4_DVaHoe2_fVqXpNm-197" value="&lt;table&gt;&lt;tbody&gt;&lt;tr&gt;&lt;td data-end=&quot;654&quot; data-start=&quot;559&quot; data-col-size=&quot;md&quot;&gt;Automatically and instantly scales compute up/down in fine-grained increments&lt;/td&gt;&lt;/tr&gt;&lt;/tbody&gt;&lt;/table&gt;&lt;table&gt;&lt;tbody&gt;&lt;tr&gt;&lt;td data-end=&quot;751&quot; data-start=&quot;654&quot; data-col-size=&quot;md&quot;&gt;&lt;/td&gt;&lt;/tr&gt;&lt;/tbody&gt;&lt;/table&gt;" style="shape=partialRectangle;html=1;whiteSpace=wrap;connectable=0;strokeColor=inherit;overflow=hidden;fillColor=none;top=0;left=0;bottom=0;right=0;pointerEvents=1;align=left;spacingLeft=2;" vertex="1" parent="USx4_DVaHoe2_fVqXpNm-195">
          <mxGeometry x="96" width="140" height="70" as="geometry">
            <mxRectangle width="140" height="70" as="alternateBounds" />
          </mxGeometry>
        </mxCell>
        <mxCell id="USx4_DVaHoe2_fVqXpNm-198" value="May still have slight latency during rapid scaling events" style="shape=partialRectangle;html=1;whiteSpace=wrap;connectable=0;strokeColor=inherit;overflow=hidden;fillColor=none;top=0;left=0;bottom=0;right=0;pointerEvents=1;align=left;spacingLeft=4;" vertex="1" parent="USx4_DVaHoe2_fVqXpNm-195">
          <mxGeometry x="236" width="130" height="70" as="geometry">
            <mxRectangle width="130" height="70" as="alternateBounds" />
          </mxGeometry>
        </mxCell>
        <mxCell id="USx4_DVaHoe2_fVqXpNm-199" value="" style="shape=tableRow;horizontal=0;startSize=0;swimlaneHead=0;swimlaneBody=0;strokeColor=inherit;top=0;left=0;bottom=0;right=0;collapsible=0;dropTarget=0;fillColor=none;points=[[0,0.5],[1,0.5]];portConstraint=eastwest;" vertex="1" parent="USx4_DVaHoe2_fVqXpNm-190">
          <mxGeometry y="110" width="366" height="50" as="geometry" />
        </mxCell>
        <mxCell id="USx4_DVaHoe2_fVqXpNm-200" value="&lt;b&gt;High Availability&lt;span style=&quot;white-space:pre&quot;&gt;&#x9;&lt;/span&gt;&lt;/b&gt;" style="shape=partialRectangle;html=1;whiteSpace=wrap;connectable=0;strokeColor=inherit;overflow=hidden;fillColor=none;top=0;left=0;bottom=0;right=0;pointerEvents=1;" vertex="1" parent="USx4_DVaHoe2_fVqXpNm-199">
          <mxGeometry width="96" height="50" as="geometry">
            <mxRectangle width="96" height="50" as="alternateBounds" />
          </mxGeometry>
        </mxCell>
        <mxCell id="USx4_DVaHoe2_fVqXpNm-201" value="Pay-per-second billing for actual usage; no cost when idle" style="shape=partialRectangle;html=1;whiteSpace=wrap;connectable=0;strokeColor=inherit;overflow=hidden;fillColor=none;top=0;left=0;bottom=0;right=0;pointerEvents=1;align=left;spacingLeft=4;" vertex="1" parent="USx4_DVaHoe2_fVqXpNm-199">
          <mxGeometry x="96" width="140" height="50" as="geometry">
            <mxRectangle width="140" height="50" as="alternateBounds" />
          </mxGeometry>
        </mxCell>
        <mxCell id="USx4_DVaHoe2_fVqXpNm-202" value="Pricing is harder to estimate for variable workloads" style="shape=partialRectangle;html=1;whiteSpace=wrap;connectable=0;strokeColor=inherit;overflow=hidden;fillColor=none;top=0;left=0;bottom=0;right=0;pointerEvents=1;spacingLeft=4;align=left;" vertex="1" parent="USx4_DVaHoe2_fVqXpNm-199">
          <mxGeometry x="236" width="130" height="50" as="geometry">
            <mxRectangle width="130" height="50" as="alternateBounds" />
          </mxGeometry>
        </mxCell>
        <mxCell id="USx4_DVaHoe2_fVqXpNm-203" value="" style="shape=tableRow;horizontal=0;startSize=0;swimlaneHead=0;swimlaneBody=0;strokeColor=inherit;top=0;left=0;bottom=0;right=0;collapsible=0;dropTarget=0;fillColor=none;points=[[0,0.5],[1,0.5]];portConstraint=eastwest;" vertex="1" parent="USx4_DVaHoe2_fVqXpNm-190">
          <mxGeometry y="160" width="366" height="50" as="geometry" />
        </mxCell>
        <mxCell id="USx4_DVaHoe2_fVqXpNm-204" value="&lt;b&gt;Startup Time&lt;span style=&quot;white-space:pre&quot;&gt;&#x9;&lt;/span&gt;&lt;/b&gt;" style="shape=partialRectangle;html=1;whiteSpace=wrap;connectable=0;strokeColor=inherit;overflow=hidden;fillColor=none;top=0;left=0;bottom=0;right=0;pointerEvents=1;" vertex="1" parent="USx4_DVaHoe2_fVqXpNm-203">
          <mxGeometry width="96" height="50" as="geometry">
            <mxRectangle width="96" height="50" as="alternateBounds" />
          </mxGeometry>
        </mxCell>
        <mxCell id="USx4_DVaHoe2_fVqXpNm-205" value="Sub-second warm scaling; no cold starts like in v1" style="shape=partialRectangle;html=1;whiteSpace=wrap;connectable=0;strokeColor=inherit;overflow=hidden;fillColor=none;top=0;left=0;bottom=0;right=0;pointerEvents=1;spacingLeft=4;align=left;" vertex="1" parent="USx4_DVaHoe2_fVqXpNm-203">
          <mxGeometry x="96" width="140" height="50" as="geometry">
            <mxRectangle width="140" height="50" as="alternateBounds" />
          </mxGeometry>
        </mxCell>
        <mxCell id="USx4_DVaHoe2_fVqXpNm-206" value="Still not 100% latency-free when scaling from zero load" style="shape=partialRectangle;html=1;whiteSpace=wrap;connectable=0;strokeColor=inherit;overflow=hidden;fillColor=none;top=0;left=0;bottom=0;right=0;pointerEvents=1;spacingLeft=4;align=left;" vertex="1" parent="USx4_DVaHoe2_fVqXpNm-203">
          <mxGeometry x="236" width="130" height="50" as="geometry">
            <mxRectangle width="130" height="50" as="alternateBounds" />
          </mxGeometry>
        </mxCell>
        <mxCell id="USx4_DVaHoe2_fVqXpNm-207" style="shape=tableRow;horizontal=0;startSize=0;swimlaneHead=0;swimlaneBody=0;strokeColor=inherit;top=0;left=0;bottom=0;right=0;collapsible=0;dropTarget=0;fillColor=none;points=[[0,0.5],[1,0.5]];portConstraint=eastwest;" vertex="1" parent="USx4_DVaHoe2_fVqXpNm-190">
          <mxGeometry y="210" width="366" height="50" as="geometry" />
        </mxCell>
        <mxCell id="USx4_DVaHoe2_fVqXpNm-208" value="&lt;b&gt;Management&lt;/b&gt;" style="shape=partialRectangle;html=1;whiteSpace=wrap;connectable=0;strokeColor=inherit;overflow=hidden;fillColor=none;top=0;left=0;bottom=0;right=0;pointerEvents=1;" vertex="1" parent="USx4_DVaHoe2_fVqXpNm-207">
          <mxGeometry width="96" height="50" as="geometry">
            <mxRectangle width="96" height="50" as="alternateBounds" />
          </mxGeometry>
        </mxCell>
        <mxCell id="USx4_DVaHoe2_fVqXpNm-209" value="Fully managed: backups, patching, monitoring, failover" style="shape=partialRectangle;html=1;whiteSpace=wrap;connectable=0;strokeColor=inherit;overflow=hidden;fillColor=none;top=0;left=0;bottom=0;right=0;pointerEvents=1;spacingLeft=4;align=left;" vertex="1" parent="USx4_DVaHoe2_fVqXpNm-207">
          <mxGeometry x="96" width="140" height="50" as="geometry">
            <mxRectangle width="140" height="50" as="alternateBounds" />
          </mxGeometry>
        </mxCell>
        <mxCell id="USx4_DVaHoe2_fVqXpNm-210" value="No direct control over instance types or storage layout" style="shape=partialRectangle;html=1;whiteSpace=wrap;connectable=0;strokeColor=inherit;overflow=hidden;fillColor=none;top=0;left=0;bottom=0;right=0;pointerEvents=1;spacingLeft=4;align=left;" vertex="1" parent="USx4_DVaHoe2_fVqXpNm-207">
          <mxGeometry x="236" width="130" height="50" as="geometry">
            <mxRectangle width="130" height="50" as="alternateBounds" />
          </mxGeometry>
        </mxCell>
        <mxCell id="USx4_DVaHoe2_fVqXpNm-229" value="" style="shape=table;startSize=0;container=1;collapsible=0;childLayout=tableLayout;" vertex="1" parent="1">
          <mxGeometry x="144" y="3640" width="266" height="180" as="geometry" />
        </mxCell>
        <mxCell id="USx4_DVaHoe2_fVqXpNm-230" value="" style="shape=tableRow;horizontal=0;startSize=0;swimlaneHead=0;swimlaneBody=0;strokeColor=inherit;top=0;left=0;bottom=0;right=0;collapsible=0;dropTarget=0;fillColor=none;points=[[0,0.5],[1,0.5]];portConstraint=eastwest;" vertex="1" parent="USx4_DVaHoe2_fVqXpNm-229">
          <mxGeometry width="266" height="40" as="geometry" />
        </mxCell>
        <mxCell id="USx4_DVaHoe2_fVqXpNm-231" value="" style="shape=partialRectangle;html=1;whiteSpace=wrap;connectable=0;strokeColor=inherit;overflow=hidden;fillColor=none;top=0;left=0;bottom=0;right=0;pointerEvents=1;" vertex="1" parent="USx4_DVaHoe2_fVqXpNm-230">
          <mxGeometry width="86" height="40" as="geometry">
            <mxRectangle width="86" height="40" as="alternateBounds" />
          </mxGeometry>
        </mxCell>
        <mxCell id="USx4_DVaHoe2_fVqXpNm-232" value="Approach" style="shape=partialRectangle;html=1;whiteSpace=wrap;connectable=0;strokeColor=inherit;overflow=hidden;fillColor=none;top=0;left=0;bottom=0;right=0;pointerEvents=1;" vertex="1" parent="USx4_DVaHoe2_fVqXpNm-230">
          <mxGeometry x="86" width="180" height="40" as="geometry">
            <mxRectangle width="180" height="40" as="alternateBounds" />
          </mxGeometry>
        </mxCell>
        <mxCell id="USx4_DVaHoe2_fVqXpNm-233" value="" style="shape=tableRow;horizontal=0;startSize=0;swimlaneHead=0;swimlaneBody=0;strokeColor=inherit;top=0;left=0;bottom=0;right=0;collapsible=0;dropTarget=0;fillColor=none;points=[[0,0.5],[1,0.5]];portConstraint=eastwest;" vertex="1" parent="USx4_DVaHoe2_fVqXpNm-229">
          <mxGeometry y="40" width="266" height="40" as="geometry" />
        </mxCell>
        <mxCell id="USx4_DVaHoe2_fVqXpNm-234" value="Backups" style="shape=partialRectangle;html=1;whiteSpace=wrap;connectable=0;strokeColor=inherit;overflow=hidden;fillColor=none;top=0;left=0;bottom=0;right=0;pointerEvents=1;fontStyle=1" vertex="1" parent="USx4_DVaHoe2_fVqXpNm-233">
          <mxGeometry width="86" height="40" as="geometry">
            <mxRectangle width="86" height="40" as="alternateBounds" />
          </mxGeometry>
        </mxCell>
        <mxCell id="USx4_DVaHoe2_fVqXpNm-235" value="&lt;div&gt;Automated + manual snapshots, export to S3 for archiving&lt;/div&gt;&lt;div&gt;&lt;br&gt;&lt;/div&gt;" style="shape=partialRectangle;html=1;whiteSpace=wrap;connectable=0;strokeColor=inherit;overflow=hidden;fillColor=none;top=0;left=0;bottom=0;right=0;pointerEvents=1;align=left;spacingLeft=4;" vertex="1" parent="USx4_DVaHoe2_fVqXpNm-233">
          <mxGeometry x="86" width="180" height="40" as="geometry">
            <mxRectangle width="180" height="40" as="alternateBounds" />
          </mxGeometry>
        </mxCell>
        <mxCell id="USx4_DVaHoe2_fVqXpNm-236" value="" style="shape=tableRow;horizontal=0;startSize=0;swimlaneHead=0;swimlaneBody=0;strokeColor=inherit;top=0;left=0;bottom=0;right=0;collapsible=0;dropTarget=0;fillColor=none;points=[[0,0.5],[1,0.5]];portConstraint=eastwest;" vertex="1" parent="USx4_DVaHoe2_fVqXpNm-229">
          <mxGeometry y="80" width="266" height="50" as="geometry" />
        </mxCell>
        <mxCell id="USx4_DVaHoe2_fVqXpNm-237" value="High Availability&lt;span style=&quot;white-space:pre&quot;&gt;&#x9;&lt;/span&gt;" style="shape=partialRectangle;html=1;whiteSpace=wrap;connectable=0;strokeColor=inherit;overflow=hidden;fillColor=none;top=0;left=0;bottom=0;right=0;pointerEvents=1;fontStyle=1" vertex="1" parent="USx4_DVaHoe2_fVqXpNm-236">
          <mxGeometry width="86" height="50" as="geometry">
            <mxRectangle width="86" height="50" as="alternateBounds" />
          </mxGeometry>
        </mxCell>
        <mxCell id="USx4_DVaHoe2_fVqXpNm-238" value="&lt;div&gt;Aurora Serverless v2 default HA + reader endpoint + failover support&lt;/div&gt;&lt;div style=&quot;&quot;&gt;&lt;br&gt;&lt;/div&gt;" style="shape=partialRectangle;html=1;whiteSpace=wrap;connectable=0;strokeColor=inherit;overflow=hidden;fillColor=none;top=0;left=0;bottom=0;right=0;pointerEvents=1;spacingLeft=4;align=left;" vertex="1" parent="USx4_DVaHoe2_fVqXpNm-236">
          <mxGeometry x="86" width="180" height="50" as="geometry">
            <mxRectangle width="180" height="50" as="alternateBounds" />
          </mxGeometry>
        </mxCell>
        <mxCell id="USx4_DVaHoe2_fVqXpNm-239" value="" style="shape=tableRow;horizontal=0;startSize=0;swimlaneHead=0;swimlaneBody=0;strokeColor=inherit;top=0;left=0;bottom=0;right=0;collapsible=0;dropTarget=0;fillColor=none;points=[[0,0.5],[1,0.5]];portConstraint=eastwest;" vertex="1" parent="USx4_DVaHoe2_fVqXpNm-229">
          <mxGeometry y="130" width="266" height="50" as="geometry" />
        </mxCell>
        <mxCell id="USx4_DVaHoe2_fVqXpNm-240" value="Disaster Recovery&lt;span style=&quot;white-space:pre&quot;&gt;&#x9;&lt;/span&gt;" style="shape=partialRectangle;html=1;whiteSpace=wrap;connectable=0;strokeColor=inherit;overflow=hidden;fillColor=none;top=0;left=0;bottom=0;right=0;pointerEvents=1;fontStyle=1" vertex="1" parent="USx4_DVaHoe2_fVqXpNm-239">
          <mxGeometry width="86" height="50" as="geometry">
            <mxRectangle width="86" height="50" as="alternateBounds" />
          </mxGeometry>
        </mxCell>
        <mxCell id="USx4_DVaHoe2_fVqXpNm-241" value="PITR + cross-region snapshot replication + documented restore procedures" style="shape=partialRectangle;html=1;whiteSpace=wrap;connectable=0;strokeColor=inherit;overflow=hidden;fillColor=none;top=0;left=0;bottom=0;right=0;pointerEvents=1;spacingLeft=4;align=left;" vertex="1" parent="USx4_DVaHoe2_fVqXpNm-239">
          <mxGeometry x="86" width="180" height="50" as="geometry">
            <mxRectangle width="180" height="50" as="alternateBounds" />
          </mxGeometry>
        </mxCell>
      </root>
    </mxGraphModel>
  </diagram>
</mxfile>
